<?xml version="1.0" standalone="no"?>
<!DOCTYPE svg PUBLIC "-//W3C//DTD SVG 1.1//EN" "http://www.w3.org/Graphics/SVG/1.1/DTD/svg11.dtd" >
<svg xmlns="http://www.w3.org/2000/svg">
<metadata>Generated by IcoMoon</metadata>
<defs>
<font id="icomoon" horiz-adv-x="1024">
<font-face units-per-em="1024" ascent="960" descent="-64" />
<missing-glyph horiz-adv-x="1024" />
<glyph unicode="&#x20;" horiz-adv-x="512" d="" />
<glyph unicode="&#xe900;" glyph-name="git" d="M512 874.667c-247.4 0-448-205.6-448-459.4 0-203 128.4-375 306.4-435.8 22.4-4.2 30.6 10 30.6 22.2 0 11-0.4 39.8-0.6 78.2-124.6-27.8-151 61.6-151 61.6-20.4 53-49.8 67.2-49.8 67.2-40.6 28.6 3 28 3 28 45-3.2 68.6-47.4 68.6-47.4 40-70.2 104.8-50 130.4-38.2 4 29.6 15.6 50 28.4 61.4-99.4 11.6-204 51-204 227 0 50.2 17.4 91.2 46 123.2-4.6 11.6-20 58.4 4.4 121.6 0 0 37.6 12.4 123.2-47 35.8 10.2 74 15.2 112.2 15.4 38-0.2 76.4-5.2 112.2-15.4 85.6 59.4 123 47 123 47 24.4-63.2 9-110 4.4-121.6 28.6-32.2 46-73.2 46-123.2 0-176.4-104.8-215.2-204.6-226.6 16-14.2 30.4-42.2 30.4-85 0-61.4-0.6-111-0.6-126 0-12.2 8-26.6 30.8-22 178.4 60.6 306.6 232.6 306.6 435.4 0 253.8-200.6 459.4-448 459.4z" />
<glyph unicode="&#xe901;" d="M1024 426.667c0-282.77-229.23-512-512-512s-512 229.23-512 512c0 282.77 229.23 512 512 512s512-229.23 512-512z" />
<glyph unicode="&#xe902;" d="M611.2 522.667c-28.8 0-54.4-12.8-73.6-32v32h-89.6v-256h89.6v147.2c0 25.6 19.2 44.8 44.8 44.8s44.8-19.2 44.8-44.8v-147.2h80v160c0 54.4-41.6 96-96 96zM323.2 266.667h80v256h-80v-256zM364.8 650.667c-25.6 0-48-22.4-48-48s22.4-48 48-48 48 22.4 48 48-22.4 48-48 48z" />
<glyph unicode="&#xe903;" d="M512-85.333v0c-282.726 0-512 229.274-512 512v0c0 282.726 229.274 512 512 512v0c282.726 0 512-229.274 512-512v0c0-282.726-229.274-512-512-512z" />
<glyph unicode="&#xe904;" d="M512 713.182c93.286 0 104.346-0.307 141.21-2.048 34.099-1.536 52.634-7.27 64.922-12.083 16.282-6.349 27.955-13.926 40.141-26.112s19.763-23.859 26.112-40.141c4.813-12.288 10.445-30.822 12.083-64.922 1.638-36.864 2.048-47.923 2.048-141.21s-0.307-104.346-2.048-141.21c-1.536-34.099-7.27-52.634-12.083-64.922-6.349-16.282-13.926-27.955-26.112-40.141s-23.859-19.763-40.141-26.112c-12.288-4.813-30.822-10.445-64.922-12.083-36.864-1.638-47.923-2.048-141.21-2.048s-104.346 0.307-141.21 2.048c-34.099 1.536-52.634 7.27-64.922 12.083-16.282 6.349-27.955 13.926-40.141 26.112s-19.763 23.859-26.112 40.141c-4.813 12.288-10.445 30.822-12.083 64.922-1.638 36.864-2.048 47.923-2.048 141.21s0.307 104.346 2.048 141.21c1.536 34.099 7.27 52.634 12.083 64.922 6.349 16.282 13.926 27.955 26.112 40.141s23.859 19.763 40.141 26.112c12.288 4.813 30.822 10.445 64.922 12.083 36.864 1.741 47.923 2.048 141.21 2.048zM512 776.158c-94.925 0-106.803-0.41-144.077-2.15-37.171-1.741-62.566-7.578-84.89-16.282-22.938-8.806-42.496-20.787-61.85-40.243-19.456-19.456-31.334-38.912-40.346-61.952-8.602-22.221-14.541-47.616-16.282-84.89s-2.15-49.152-2.15-144.077c0-94.925 0.41-106.803 2.15-144.077 1.741-37.171 7.578-62.566 16.282-84.89 8.909-22.835 20.89-42.394 40.346-61.747 19.456-19.456 38.912-31.334 61.952-40.346 22.221-8.602 47.616-14.541 84.89-16.282s49.152-2.15 144.077-2.15 106.803 0.41 144.077 2.15c37.171 1.741 62.566 7.578 84.89 16.282 22.835 8.909 42.394 20.89 61.747 40.346 19.456 19.456 31.334 38.912 40.346 61.952 8.602 22.221 14.541 47.616 16.282 84.89s2.15 49.152 2.15 144.077-0.41 106.803-2.15 144.077c-1.741 37.171-7.578 62.566-16.282 84.89-8.909 22.835-20.89 42.394-40.346 61.747-19.456 19.456-38.912 31.334-61.952 40.346-22.221 8.602-47.616 14.541-84.89 16.282-37.171 1.638-49.050 2.048-143.974 2.048v0z" />
<glyph unicode="&#xe905;" d="M512 606.174c-99.123 0-179.507-80.384-179.507-179.507s80.384-179.507 179.507-179.507 179.507 80.384 179.507 179.507-80.384 179.507-179.507 179.507zM512 310.136c-64.307 0-116.531 52.122-116.531 116.531s52.224 116.531 116.531 116.531c64.307 0 116.531-52.122 116.531-116.531s-52.224-116.531-116.531-116.531z" />
<glyph unicode="&#xe906;" d="M740.557 613.24c0-23.187-18.797-41.984-41.984-41.984s-41.984 18.797-41.984 41.984c0 23.187 18.797 41.984 41.984 41.984s41.984-18.797 41.984-41.984z" />
<glyph unicode="&#xe907;" d="M1024 426.667c0-282.77-229.23-512-512-512s-512 229.23-512 512c0 282.77 229.23 512 512 512s512-229.23 512-512z" />
<glyph unicode="&#xe908;" d="M544 570.667c0 9.6 6.4 16 16 16h64v96h-112c-44.8 0-80-35.2-80-80v-96h-48v-96h48v-240h112v240h64l16 96h-80v64z" />
<glyph unicode="&#xe909;" glyph-name="arrow" d="M128 384h665.003l-228.864-228.864c-16.661-16.661-16.661-43.68-0.011-60.331 16.661-16.661 43.691-16.661 60.352 0l301.685 301.696c1.984 1.984 3.755 4.171 5.312 6.496 0.715 1.077 1.216 2.24 1.835 3.36 0.704 1.323 1.515 2.581 2.080 3.979 0.608 1.44 0.949 2.933 1.376 4.427 0.352 1.184 0.811 2.315 1.056 3.531 0.555 2.773 0.843 5.568 0.843 8.373v0c0 0.032-0.011 0.064-0.011 0.096-0.011 2.763-0.288 5.536-0.832 8.256-0.256 1.28-0.736 2.464-1.109 3.723-0.416 1.419-0.736 2.859-1.312 4.235-0.619 1.483-1.451 2.827-2.219 4.224-0.576 1.045-1.035 2.112-1.696 3.115-1.557 2.357-3.349 4.555-5.344 6.549l-301.675 301.664c-16.661 16.661-43.68 16.661-60.341 0.011-16.661-16.661-16.661-43.68 0-60.352l228.864-228.853h-664.992c-23.563 0-42.667-19.104-42.667-42.667s19.104-42.667 42.667-42.667z" />
<glyph unicode="&#xe90c;" horiz-adv-x="1549" d="M149.487 83.283v-14.21c0-43.502 35.266-78.769 78.769-78.769h556.55" />
<glyph unicode="&#xe90d;" horiz-adv-x="1549" d="M130.82 804.116v-404.713c317.66 0 520.037 74.382 672.691 158.061v246.652c0 43.503-35.265 78.769-78.769 78.769h-515.153c-43.503 0-78.769-35.266-78.769-78.769z" />
<glyph unicode="&#xe90e;" horiz-adv-x="1549" d="M280.308 120.462h168.172v-185.956l-84.086 37.192-84.086-37.192v185.956z" />
<glyph unicode="&#xe90f;" horiz-adv-x="1549" d="M130.82 64.678v297.527c317.66 0 457.804 18.595 672.691 108.489v-327.247c0-43.504-35.265-78.769-78.769-78.769h-593.922z" />
<glyph unicode="&#xe910;" horiz-adv-x="1549" d="M971.666 778.741l270.331 33.356 125.419 103.985c54.55 41.795 94.615-20.213 54.051-52.772l-111.432-94.748-67.198-229.010-40.561-32.558 12.306 188.068c-175.965-107.573-623.445-340.88-952.977-314.261 439.299 31.059 752.782 279.019 859.546 351.452h-186.859l37.373 46.489z" />
<glyph unicode="&#xe911;" horiz-adv-x="1549" d="M224.231 371.505c205.545-37.192 555.083 80.878 613.294 116.027-165.436-99.898-1171.671-384.402-646.949 60.106-123.839-113.202-171.98-204.028 33.656-176.133z" />
<glyph unicode="&#xe912;" horiz-adv-x="1549" d="M269.179 752.718h395.949c14.501 0 26.256-11.755 26.256-26.256v-59.060c0-14.501-11.755-26.256-26.256-26.256h-395.949c-14.501 0-26.256 11.755-26.256 26.256v59.060c0 14.501 11.755 26.256 26.256 26.256z" />
<glyph unicode="&#xe913;" horiz-adv-x="953" d="M312.21 357.368c11.931 19.38 37.824 26.305 57.835 15.47l-221.459-359.736c-8.614 11.807-23.090 19.554-39.495 19.554-18.707 0-34.905-10.073-42.763-24.75l-40.88 22.133c-24.734 13.393-32.831 43.668-18.086 67.62l114.751 186.399c14.745 23.952 46.749 32.513 71.483 19.12l63.94-34.621 54.674 88.812z" />
<glyph unicode="&#xe914;" horiz-adv-x="953" d="M139.947-12.193c0-14.384-12.767-27.874-30.846-27.874s-30.846 13.491-30.846 27.874c0 14.384 12.767 27.872 30.846 27.872s30.846-13.488 30.846-27.872z" />
<glyph unicode="&#xe915;" horiz-adv-x="953" d="M283.803 408.187c-15.439-28.955-4.479-64.945 24.478-80.382 28.955-15.439 64.943-4.479 80.382 24.476l-104.86 55.906zM860.662 434.511c31.949-7.492 63.921 12.336 71.411 44.284 7.489 31.946-12.336 63.919-44.284 71.409l-27.126-115.693zM744.031 522.883v0zM413.058 519.992v0zM620.375 629.519v0zM388.663 352.282l68.306 128.119-104.86 55.906-68.306-128.119 104.86-55.906zM455.547 478.462l104.877 107.299-84.98 83.061-104.877-107.299 84.98-83.061zM579.732 586.18l100.442-94.198 81.289 86.676-100.442 94.201-81.289-86.678zM730.469 465.036l130.193-30.525 27.126 115.693-130.193 30.527-27.126-115.695zM680.174 491.982c14.112-13.236 31.458-22.528 50.295-26.945l27.126 115.695c1.448-0.341 2.781-1.055 3.867-2.074l-81.289-86.676zM456.968 480.401c-0.379-0.71-0.857-1.365-1.422-1.938l-84.98 83.061c-7.318-7.487-13.533-15.979-18.458-25.217l104.86-55.906zM570.292 589.914c3.505 0 6.882-1.336 9.44-3.734l81.289 86.678c-24.586 23.057-57.025 35.888-90.729 35.888v-118.832zM570.292 708.746c-35.702 0-69.894-14.393-94.849-39.924l84.98-83.061c2.598 2.655 6.154 4.153 9.869 4.153v118.832z" />
<glyph unicode="&#xe916;" horiz-adv-x="953" d="M685.207 820.702c0-65.15-52.794-117.965-117.918-117.965s-117.918 52.815-117.918 117.965c0 65.15 52.794 117.965 117.918 117.965s117.918-52.815 117.918-117.965z" />
<glyph unicode="&#xe917;" horiz-adv-x="953" d="M558.307 663.764c59.199 4.857 111.662-39.148 117.179-98.29l15.191-162.843c5.517-59.141-38.001-111.022-97.2-115.88s-111.662 39.148-117.179 98.29l-15.191 162.843c-5.517 59.141 38.001 111.022 97.2 115.88z" />
<glyph unicode="&#xe918;" horiz-adv-x="953" d="M602.669 333.677v0c23.424 11.443 52.674 2.244 65.332-20.547l165.731-298.395c12.658-22.79 3.93-50.542-19.494-61.984v0c-23.424-11.443-52.674-2.244-65.332 20.547l-165.731 298.395c-12.658 22.79-3.93 50.542 19.494 61.984z" />
<glyph unicode="&#xe919;" horiz-adv-x="953" d="M566.307 333.677v0c-23.424 11.443-52.674 2.244-65.332-20.547l-165.731-298.395c-12.658-22.79-3.93-50.542 19.494-61.984v0c23.424-11.443 52.674-2.244 65.332 20.547l165.731 298.395c12.658 22.79 3.93 50.542-19.494 61.984z" />
<glyph unicode="&#xe91a;" horiz-adv-x="1045" d="M433.659 14.271c0-44.701-79.288-80.938-177.095-80.938s-177.095 36.237-177.095 80.938c0 44.701 79.288 80.938 177.095 80.938s177.095-36.237 177.095-80.938z" />
<glyph unicode="&#xe91b;" horiz-adv-x="1045" d="M256.564 95.209c-97.807 0-177.095-36.237-177.095-80.938 78.709-80.938 303.028-61.668 354.188 0 0 44.701-79.287 80.938-177.093 80.938z" />
<glyph unicode="&#xe91c;" horiz-adv-x="1045" d="M504.512 380.418c0-136.23-212.513-385.419-251.868-385.419s-251.868 249.189-251.868 385.419c0 136.232 112.765 246.667 251.868 246.667s251.868-110.435 251.868-246.667z" />
<glyph unicode="&#xe91d;" horiz-adv-x="1045" d="M252.644 627.085c-139.103 0-251.868-110.435-251.868-246.667 0-111.921 143.435-300.080 216.448-363.67 169.225 132.42 389.609 444.608 35.42 610.337z" />
<glyph unicode="&#xe91e;" horiz-adv-x="1045" d="M347.065 380.422c0-51.087-42.287-92.5-94.45-92.5s-94.45 41.414-94.45 92.5c0 51.087 42.287 92.5 94.45 92.5s94.45-41.414 94.45-92.5z" />
<glyph unicode="&#xe91f;" horiz-adv-x="1045" d="M968.65 443.379c0-34.767-61.944-62.952-138.355-62.952s-138.355 28.184-138.355 62.952c0 34.767 61.944 62.952 138.355 62.952s138.355-28.184 138.355-62.952z" />
<glyph unicode="&#xe920;" horiz-adv-x="1045" d="M830.295 506.33c-76.411 0-138.355-28.185-138.355-62.951 61.49-62.953 236.74-47.963 276.71 0 0 34.766-61.944 62.951-138.355 62.951z" />
<glyph unicode="&#xe921;" horiz-adv-x="1045" d="M1023.994 728.151c0-105.957-166.028-299.771-196.773-299.771s-196.771 193.814-196.771 299.771c0 105.957 88.097 191.852 196.771 191.852s196.773-85.895 196.773-191.852z" />
<glyph unicode="&#xe922;" horiz-adv-x="1045" d="M827.221 920.004c-108.674 0-196.771-85.895-196.771-191.852 0-87.050 112.059-233.397 169.1-282.856 132.207 102.994 304.381 345.807 27.671 474.708z" />
<glyph unicode="&#xe923;" horiz-adv-x="1045" d="M901.048 728.151c0-39.734-33.037-71.945-73.789-71.945s-73.789 32.211-73.789 71.945c0 39.734 33.037 71.945 73.789 71.945s73.789-32.211 73.789-71.945z" />
<glyph unicode="&#xe924;" horiz-adv-x="1045" d="M661.912 449.789h-31.587c-54.28 0-98.283-44.001-98.283-98.281v0c0-54.278 44.003-98.281 98.283-98.281h250.556c65.985 0 119.478-53.493 119.478-119.48v0c0-65.987-53.493-119.48-119.478-119.48h-419.677" />
</font>
</defs>
</svg>
